<svg width="24" height="24" viewBox="0 0 24 24" fill="none" xmlns="http://www.w3.org/2000/svg">
<path d="M8.74 14.4784L12.3333 10.885L15.9267 14.4784L17.5833 12.8334L12.3333 7.58337L7.08333 12.8334L8.74 14.4784ZM12.3333 23.3334C18.7733 23.3334 24 18.1067 24 11.6667C24 5.22671 18.7733 4.19617e-05 12.3333 4.19617e-05C5.89333 4.19617e-05 0.666668 5.22671 0.666668 11.6667C0.666668 18.1067 5.89333 23.3334 12.3333 23.3334ZM12.3333 2.33337C17.49 2.33337 21.6667 6.51004 21.6667 11.6667C21.6667 16.8234 17.49 21 12.3333 21C7.17667 21 3 16.8234 3 11.6667C3 6.51004 7.17667 2.33337 12.3333 2.33337Z" fill="#979797"/>
</svg>
