<svg xmlns="http://www.w3.org/2000/svg" width="8" height="12" viewBox="0 0 8 12" fill="none">
<path fill-rule="evenodd" clip-rule="evenodd" d="M7.32915 0.931149C7.55695 0.718136 7.55695 0.372773 7.32915 0.15976C7.10134 -0.0532533 6.73199 -0.0532533 6.50419 0.15976L0.670855 5.61431C0.443049 5.82732 0.443049 6.17268 0.670855 6.38569L6.50419 11.8402C6.73199 12.0533 7.10134 12.0533 7.32915 11.8402C7.55695 11.6272 7.55695 11.2819 7.32915 11.0689L1.90829 6L7.32915 0.931149Z" fill="#333842"/>
<path fill-rule="evenodd" clip-rule="evenodd" d="M7.32915 0.931149C7.55695 0.718136 7.55695 0.372773 7.32915 0.15976C7.10134 -0.0532533 6.73199 -0.0532533 6.50419 0.15976L0.670855 5.61431C0.443049 5.82732 0.443049 6.17268 0.670855 6.38569L6.50419 11.8402C6.73199 12.0533 7.10134 12.0533 7.32915 11.8402C7.55695 11.6272 7.55695 11.2819 7.32915 11.0689L1.90829 6L7.32915 0.931149Z" fill="black" fill-opacity="0.2"/>
<path fill-rule="evenodd" clip-rule="evenodd" d="M7.32915 0.931149C7.55695 0.718136 7.55695 0.372773 7.32915 0.15976C7.10134 -0.0532533 6.73199 -0.0532533 6.50419 0.15976L0.670855 5.61431C0.443049 5.82732 0.443049 6.17268 0.670855 6.38569L6.50419 11.8402C6.73199 12.0533 7.10134 12.0533 7.32915 11.8402C7.55695 11.6272 7.55695 11.2819 7.32915 11.0689L1.90829 6L7.32915 0.931149Z" fill="black" fill-opacity="0.2"/>
<path fill-rule="evenodd" clip-rule="evenodd" d="M7.32915 0.931149C7.55695 0.718136 7.55695 0.372773 7.32915 0.15976C7.10134 -0.0532533 6.73199 -0.0532533 6.50419 0.15976L0.670855 5.61431C0.443049 5.82732 0.443049 6.17268 0.670855 6.38569L6.50419 11.8402C6.73199 12.0533 7.10134 12.0533 7.32915 11.8402C7.55695 11.6272 7.55695 11.2819 7.32915 11.0689L1.90829 6L7.32915 0.931149Z" fill="black" fill-opacity="0.2"/>
</svg>