<svg xmlns="http://www.w3.org/2000/svg" width="8" height="12" viewBox="0 0 8 12" fill="none">
<path fill-rule="evenodd" clip-rule="evenodd" d="M0.670854 11.0689C0.443049 11.2819 0.443049 11.6272 0.670854 11.8402C0.89866 12.0533 1.26801 12.0533 1.49581 11.8402L7.32915 6.38569C7.55695 6.17268 7.55695 5.82732 7.32915 5.61431L1.49581 0.159759C1.26801 -0.0532542 0.89866 -0.0532541 0.670854 0.15976C0.443048 0.372773 0.443048 0.718136 0.670854 0.931149L6.09171 6L0.670854 11.0689Z" fill="#333842"/>
<path fill-rule="evenodd" clip-rule="evenodd" d="M0.670854 11.0689C0.443049 11.2819 0.443049 11.6272 0.670854 11.8402C0.89866 12.0533 1.26801 12.0533 1.49581 11.8402L7.32915 6.38569C7.55695 6.17268 7.55695 5.82732 7.32915 5.61431L1.49581 0.159759C1.26801 -0.0532542 0.89866 -0.0532541 0.670854 0.15976C0.443048 0.372773 0.443048 0.718136 0.670854 0.931149L6.09171 6L0.670854 11.0689Z" fill="black" fill-opacity="0.2"/>
<path fill-rule="evenodd" clip-rule="evenodd" d="M0.670854 11.0689C0.443049 11.2819 0.443049 11.6272 0.670854 11.8402C0.89866 12.0533 1.26801 12.0533 1.49581 11.8402L7.32915 6.38569C7.55695 6.17268 7.55695 5.82732 7.32915 5.61431L1.49581 0.159759C1.26801 -0.0532542 0.89866 -0.0532541 0.670854 0.15976C0.443048 0.372773 0.443048 0.718136 0.670854 0.931149L6.09171 6L0.670854 11.0689Z" fill="black" fill-opacity="0.2"/>
<path fill-rule="evenodd" clip-rule="evenodd" d="M0.670854 11.0689C0.443049 11.2819 0.443049 11.6272 0.670854 11.8402C0.89866 12.0533 1.26801 12.0533 1.49581 11.8402L7.32915 6.38569C7.55695 6.17268 7.55695 5.82732 7.32915 5.61431L1.49581 0.159759C1.26801 -0.0532542 0.89866 -0.0532541 0.670854 0.15976C0.443048 0.372773 0.443048 0.718136 0.670854 0.931149L6.09171 6L0.670854 11.0689Z" fill="black" fill-opacity="0.2"/>
</svg>