<svg xmlns="http://www.w3.org/2000/svg" width="36" height="28" viewBox="0 0 36 28" fill="none">
<path d="M12.8434 4.75999L11.1751 3.09166C8.37511 5.22666 6.53177 8.51666 6.36844 12.25H8.70177C8.87677 9.15832 10.4634 6.45166 12.8434 4.75999ZM27.2984 12.25H29.6318C29.4568 8.51666 27.6134 5.22666 24.8251 3.09166L23.1684 4.75999C25.5251 6.45166 27.1234 9.15832 27.2984 12.25ZM25.0001 12.8333C25.0001 9.25166 23.0868 6.25332 19.7501 5.45999V4.66666C19.7501 3.69832 18.9684 2.91666 18.0001 2.91666C17.0318 2.91666 16.2501 3.69832 16.2501 4.66666V5.45999C12.9018 6.25332 11.0001 9.23999 11.0001 12.8333V18.6667L8.66677 21V22.1667H27.3334V21L25.0001 18.6667V12.8333ZM18.0001 25.6667C18.1634 25.6667 18.3151 25.655 18.4668 25.62C19.2251 25.4567 19.8434 24.9433 20.1468 24.2433C20.2634 23.9633 20.3218 23.66 20.3218 23.3333H15.6551C15.6668 24.6167 16.7051 25.6667 18.0001 25.6667Z" fill="#707883"/>
<rect x="0.5" y="0.5" width="35" height="27" rx="13.5" stroke="#707883"/>
</svg>