<svg xmlns="http://www.w3.org/2000/svg" width="24" height="24" viewBox="0 0 24 24" fill="none">
<path d="M7.58125 4.08L6.15125 2.65C3.75125 4.48 2.17125 7.3 2.03125 10.5H4.03125C4.18125 7.85 5.54125 5.53 7.58125 4.08ZM19.9712 10.5H21.9712C21.8212 7.3 20.2412 4.48 17.8512 2.65L16.4312 4.08C18.4512 5.53 19.8212 7.85 19.9712 10.5ZM18.0012 11C18.0012 7.93 16.3612 5.36 13.5012 4.68V4C13.5012 3.17 12.8312 2.5 12.0012 2.5C11.1712 2.5 10.5012 3.17 10.5012 4V4.68C7.63125 5.36 6.00125 7.92 6.00125 11V16L4.00125 18V19H20.0012V18L18.0012 16V11ZM12.0012 22C12.1412 22 12.2712 21.99 12.4012 21.96C13.0512 21.82 13.5812 21.38 13.8412 20.78C13.9412 20.54 13.9912 20.28 13.9912 20H9.99125C10.0012 21.1 10.8912 22 12.0012 22Z" fill="#D8D8D8"/>
</svg>