<svg width="36" height="28" viewBox="0 0 36 28" fill="none" xmlns="http://www.w3.org/2000/svg">
<path d="M12.8437 4.76L11.1753 3.09166C8.37532 5.22666 6.53199 8.51666 6.36865 12.25H8.70199C8.87699 9.15833 10.4637 6.45166 12.8437 4.76ZM27.2987 12.25H29.632C29.457 8.51666 27.6137 5.22666 24.8253 3.09166L23.1687 4.76C25.5253 6.45166 27.1237 9.15833 27.2987 12.25ZM25.0003 12.8333C25.0003 9.25166 23.087 6.25333 19.7503 5.46V4.66666C19.7503 3.69833 18.9687 2.91666 18.0003 2.91666C17.032 2.91666 16.2503 3.69833 16.2503 4.66666V5.46C12.902 6.25333 11.0003 9.24 11.0003 12.8333V18.6667L8.66699 21V22.1667H27.3337V21L25.0003 18.6667V12.8333ZM18.0003 25.6667C18.1637 25.6667 18.3153 25.655 18.467 25.62C19.2253 25.4567 19.8437 24.9433 20.147 24.2433C20.2637 23.9633 20.322 23.66 20.322 23.3333H15.6553C15.667 24.6167 16.7053 25.6667 18.0003 25.6667Z" fill="#E7002B"/>
<rect x="0.5" y="0.5" width="35" height="27" rx="13.5" stroke="#E7002B"/>
</svg>
