<svg width="21" height="20" viewBox="0 0 21 20" fill="none" xmlns="http://www.w3.org/2000/svg">
<rect x="0.863281" width="20" height="20" fill="white" fill-opacity="0.01"/>
<path fill-rule="evenodd" clip-rule="evenodd" d="M7.86328 5C8.41528 5 8.86328 4.552 8.86328 4C8.86328 3.448 8.41528 3 7.86328 3C7.31128 3 6.86328 3.448 6.86328 4C6.86328 4.552 7.31128 5 7.86328 5ZM7.86328 9C8.41528 9 8.86328 8.552 8.86328 8C8.86328 7.448 8.41528 7 7.86328 7C7.31128 7 6.86328 7.448 6.86328 8C6.86328 8.552 7.31128 9 7.86328 9ZM8.86328 12C8.86328 12.552 8.41528 13 7.86328 13C7.31128 13 6.86328 12.552 6.86328 12C6.86328 11.448 7.31128 11 7.86328 11C8.41528 11 8.86328 11.448 8.86328 12ZM7.86328 17C8.41528 17 8.86328 16.552 8.86328 16C8.86328 15.448 8.41528 15 7.86328 15C7.31128 15 6.86328 15.448 6.86328 16C6.86328 16.552 7.31128 17 7.86328 17ZM14.8633 4C14.8633 4.552 14.4153 5 13.8633 5C13.3113 5 12.8633 4.552 12.8633 4C12.8633 3.448 13.3113 3 13.8633 3C14.4153 3 14.8633 3.448 14.8633 4ZM13.8633 9C14.4153 9 14.8633 8.552 14.8633 8C14.8633 7.448 14.4153 7 13.8633 7C13.3113 7 12.8633 7.448 12.8633 8C12.8633 8.552 13.3113 9 13.8633 9ZM14.8633 12C14.8633 12.552 14.4153 13 13.8633 13C13.3113 13 12.8633 12.552 12.8633 12C12.8633 11.448 13.3113 11 13.8633 11C14.4153 11 14.8633 11.448 14.8633 12ZM13.8633 17C14.4153 17 14.8633 16.552 14.8633 16C14.8633 15.448 14.4153 15 13.8633 15C13.3113 15 12.8633 15.448 12.8633 16C12.8633 16.552 13.3113 17 13.8633 17Z" fill="#333842"/>
</svg>
