<svg width="32" height="32" viewBox="0 0 32 32" fill="none" xmlns="http://www.w3.org/2000/svg">
<circle cx="16" cy="16" r="15.5" stroke="#00479D"/>
<path fill-rule="evenodd" clip-rule="evenodd" d="M9.95157 19.7562L9.1875 22.8125L12.2438 22.0484L22.5428 11.6624C22.8388 11.3664 23.0018 10.9744 23.0018 10.5583C23.0018 10.1413 22.8388 9.75026 22.5438 9.45523C21.9357 8.84617 20.9436 8.84617 20.3345 9.45523L9.95157 19.7562ZM8.5002 24C8.36919 24 8.24118 23.948 8.14617 23.854C8.02216 23.73 7.97215 23.549 8.01516 23.3789L9.01525 19.3786C9.03725 19.2896 9.08326 19.2096 9.14826 19.1445L19.6292 8.74657C20.6263 7.75048 22.2525 7.75148 23.2506 8.74757C23.7346 9.23162 24.0017 9.87468 24.0017 10.5587C24.0017 11.2428 23.7346 11.8849 23.2506 12.3689L12.8556 22.8519C12.7906 22.9169 12.7106 22.9629 12.6216 22.9849L8.62121 23.985C8.58121 23.995 8.54021 24 8.5002 24Z" fill="#00479D"/>
</svg>
