<svg width="17" height="20" viewBox="0 0 17 20" fill="none" xmlns="http://www.w3.org/2000/svg">
<path fill-rule="evenodd" clip-rule="evenodd" d="M10.0018 2.5V1.25H6.25183V2.5H10.0018ZM11.2518 2.5V0.625C11.2518 0.28 10.9718 0 10.6268 0H5.62683C5.28183 0 5.00183 0.28 5.00183 0.625V2.5H1.87695H0.626953C0.281953 2.5 0.00195312 2.78 0.00195312 3.125C0.00195312 3.47 0.281953 3.75 0.626953 3.75H1.25195V18.125C1.25195 19.1588 2.0932 20 3.12695 20H13.127C14.1607 20 15.002 19.1588 15.002 18.125V3.75H15.627C15.972 3.75 16.252 3.47 16.252 3.125C16.252 2.78 15.972 2.5 15.627 2.5H14.377H11.2518ZM13.752 3.75H10.6268H5.62683H2.50195V18.125C2.50195 18.47 2.7832 18.75 3.12695 18.75H13.127C13.4707 18.75 13.752 18.47 13.752 18.125V3.75ZM5.00195 15.625C5.00195 15.97 5.28195 16.25 5.62695 16.25C5.97195 16.25 6.25195 15.97 6.25195 15.625V6.875C6.25195 6.53 5.97195 6.25 5.62695 6.25C5.28195 6.25 5.00195 6.53 5.00195 6.875V15.625ZM8.12695 16.25C7.78195 16.25 7.50195 15.97 7.50195 15.625V6.875C7.50195 6.53 7.78195 6.25 8.12695 6.25C8.47195 6.25 8.75195 6.53 8.75195 6.875V15.625C8.75195 15.97 8.47195 16.25 8.12695 16.25ZM10.002 15.625C10.002 15.97 10.282 16.25 10.627 16.25C10.972 16.25 11.252 15.97 11.252 15.625V6.875C11.252 6.53 10.972 6.25 10.627 6.25C10.282 6.25 10.002 6.53 10.002 6.875V15.625Z" fill="#333842"/>
</svg>
