<svg width="20" height="20" viewBox="0 0 20 20" fill="none" xmlns="http://www.w3.org/2000/svg">
<path fill-rule="evenodd" clip-rule="evenodd" d="M2.4396 14.6955L1.48451 18.5158L5.30487 17.5608L18.1786 4.57829C18.5486 4.20825 18.7524 3.71821 18.7524 3.19816C18.7524 2.67686 18.5486 2.18806 18.1798 1.81928C17.4198 1.05796 16.1796 1.05796 15.4183 1.81928L2.4396 14.6955ZM0.625252 20C0.461487 20 0.301472 19.935 0.182711 19.8175C0.0276961 19.6625 -0.0348098 19.4362 0.0189453 19.2237L1.26906 14.2232C1.29657 14.1119 1.35407 14.0119 1.43533 13.9307L14.5366 0.933213C15.7829 -0.311904 17.8156 -0.310654 19.0632 0.934463C19.6683 1.53952 20.0021 2.34334 20.0021 3.19843C20.0021 4.05351 19.6683 4.85608 19.0632 5.46114L6.06951 18.5649C5.98826 18.6461 5.88825 18.7036 5.77699 18.7311L0.776516 19.9812C0.726512 19.9937 0.675257 20 0.625252 20Z" fill="#333842"/>
</svg>
