<svg xmlns="http://www.w3.org/2000/svg" width="34" height="34" viewBox="0 0 34 34" fill="none" stroke="blue">
<circle cx="17" cy="17" r="16" fill="none" stroke="#3498DB"/>
<path d="M19.9091 12.6364V21C19.9091 22.6073 18.6073 23.9091 17 23.9091C15.3927 23.9091 14.0909 22.6073 14.0909 21V11.9091C14.0909 10.9055 14.9055 10.0909 15.9091 10.0909C16.9127 10.0909 17.7273 10.9055 17.7273 11.9091V19.5455C17.7273 19.9455 17.4 20.2727 17 20.2727C16.6 20.2727 16.2727 19.9455 16.2727 19.5455V12.6364H15.1818V19.5455C15.1818 20.5491 15.9964 21.3636 17 21.3636C18.0036 21.3636 18.8182 20.5491 18.8182 19.5455V11.9091C18.8182 10.3018 17.5164 9 15.9091 9C14.3018 9 13 10.3018 13 11.9091V21C13 23.2109 14.7891 25 17 25C19.2109 25 21 23.2109 21 21V12.6364H19.9091Z" stroke="#3498DB" fill="#3498DB"/>
</svg>