<svg width="22" height="22" viewBox="0 0 22 22" fill="none" xmlns="http://www.w3.org/2000/svg">
<rect x="0.5" y="0.5" width="21" height="21" rx="10.5" stroke="#333842"/>
<rect x="0.5" y="0.5" width="21" height="21" rx="10.5" stroke="black" stroke-opacity="0.2"/>
<rect x="0.5" y="0.5" width="21" height="21" rx="10.5" stroke="black" stroke-opacity="0.2"/>
<rect x="0.5" y="0.5" width="21" height="21" rx="10.5" stroke="black" stroke-opacity="0.2"/>
<path d="M5.996 6.024H16.004V6.852H5.996V6.024ZM5.624 13.392H16.412V14.22H5.624V13.392ZM10.508 4.932H11.432V15.996H10.508V4.932ZM7.748 10.416V11.664H14.24V10.416H7.748ZM7.748 8.484V9.708H14.24V8.484H7.748ZM6.884 7.728H15.14V12.408H6.884V7.728Z" fill="#333842"/>
<path d="M5.996 6.024H16.004V6.852H5.996V6.024ZM5.624 13.392H16.412V14.22H5.624V13.392ZM10.508 4.932H11.432V15.996H10.508V4.932ZM7.748 10.416V11.664H14.24V10.416H7.748ZM7.748 8.484V9.708H14.24V8.484H7.748ZM6.884 7.728H15.14V12.408H6.884V7.728Z" fill="black" fill-opacity="0.2"/>
<path d="M5.996 6.024H16.004V6.852H5.996V6.024ZM5.624 13.392H16.412V14.22H5.624V13.392ZM10.508 4.932H11.432V15.996H10.508V4.932ZM7.748 10.416V11.664H14.24V10.416H7.748ZM7.748 8.484V9.708H14.24V8.484H7.748ZM6.884 7.728H15.14V12.408H6.884V7.728Z" fill="black" fill-opacity="0.2"/>
<path d="M5.996 6.024H16.004V6.852H5.996V6.024ZM5.624 13.392H16.412V14.22H5.624V13.392ZM10.508 4.932H11.432V15.996H10.508V4.932ZM7.748 10.416V11.664H14.24V10.416H7.748ZM7.748 8.484V9.708H14.24V8.484H7.748ZM6.884 7.728H15.14V12.408H6.884V7.728Z" fill="black" fill-opacity="0.2"/>
</svg>
