<svg width="56" height="41" viewBox="0 0 56 41" fill="none" xmlns="http://www.w3.org/2000/svg">
<path d="M29.2807 18.0573L27.973 16.7564C27.296 16.0748 26.4904 15.5344 25.6029 15.1664C24.7154 14.7985 23.7638 14.6104 22.8031 14.6129H0L0.781896 15.3948H3.60616C3.80757 15.3935 4.0031 15.4626 4.15888 15.5903H0.977371L1.30765 15.9206C1.40876 16.0217 1.52335 16.1161 1.62446 16.2104L1.71208 16.2846H5.68897C5.89057 16.2821 6.08649 16.3514 6.24169 16.4801H1.92778L2.25132 16.7025C2.47828 16.8666 2.71459 17.0174 2.95907 17.1541H7.75156C7.95223 17.157 8.1464 17.2257 8.30427 17.3496H3.30958L3.98363 17.5922C4.78606 17.8902 5.6351 18.0432 6.49109 18.0438H13.973L18.0173 22.0881C18.5787 22.6587 19.2481 23.1117 19.9864 23.4207C20.7248 23.7297 21.5173 23.8885 22.3177 23.8878H25.297L19.4733 18.0573H29.2807Z" fill="#0B5B92"/>
<path d="M54.6721 22.6274L54.5642 22.5128L54.4564 22.4117L48.6056 16.5408C47.9186 15.8476 47.1006 15.2981 46.1991 14.9243C45.2976 14.5505 44.3307 14.3599 43.3548 14.3636H35.4886L36.9783 15.8465C37.5956 16.4698 38.3305 16.9641 39.1406 17.3009C39.9506 17.6376 40.8194 17.81 41.6966 17.808H44.3928L45.9094 19.3313H37.5849L34.6663 16.4127C34.0157 15.7661 33.2436 15.2545 32.3945 14.9075C31.5454 14.5604 30.6361 14.3847 29.7188 14.3905H27.117L33.6755 20.949C34.2619 21.5385 34.9594 22.0059 35.7276 22.3241C36.4959 22.6423 37.3196 22.8049 38.1511 22.8027H49.3403L50.2436 23.7126C50.2948 23.7654 50.3295 23.8319 50.3434 23.9041C50.3573 23.9763 50.3499 24.0509 50.3219 24.1189C50.294 24.1869 50.2469 24.2453 50.1862 24.2869C50.1256 24.3285 50.0542 24.3514 49.9807 24.353H0L1.48965 25.8359C2.10736 26.4586 2.84244 26.9525 3.65234 27.2892C4.46225 27.6259 5.33089 27.7986 6.20799 27.7974H52.5555C53.1513 27.7972 53.7336 27.6203 54.2289 27.2892C54.7242 26.9582 55.1103 26.4877 55.3382 25.9372C55.5662 25.3868 55.6258 24.7812 55.5097 24.1968C55.3935 23.6125 55.1067 23.0757 54.6855 22.6544L54.6721 22.6274Z" fill="#2A9844"/>
<path d="M9.81416 9.86764C10.0646 10.2806 10.2086 10.7493 10.2333 11.2316C10.258 11.7139 10.1626 12.1948 9.95571 12.6312C9.8209 12.9233 9.69284 13.2199 9.57151 13.521H14.9032C16.2072 11.2754 18.078 9.41156 20.3285 8.11599C22.579 6.82043 25.1302 6.13854 27.727 6.13854C30.3238 6.13854 32.875 6.82043 35.1255 8.11599C37.3759 9.41156 39.2468 11.2754 40.5508 13.521H45.9095C44.1528 9.18654 40.9004 5.62556 36.7424 3.4844C31.5036 0.824894 25.5488 -0.080734 19.7562 0.901081C13.9637 1.8829 8.63989 4.70018 4.57007 8.93745C4.69435 8.83395 4.82742 8.74149 4.96776 8.6611C5.77091 8.18036 6.73181 8.03741 7.64012 8.26354C8.54844 8.48967 9.33016 9.06646 9.81416 9.86764Z" fill="#E36C87"/>
<path d="M40.2407 28.8084C38.9007 30.91 37.0526 32.6399 34.8672 33.8383C32.6818 35.0367 30.2295 35.6649 27.7371 35.6649C25.2447 35.6649 22.7925 35.0367 20.607 33.8383C18.4216 32.6399 16.5735 30.91 15.2335 28.8084H9.80069C11.3195 32.2603 13.8019 35.2008 16.9501 37.2772C20.0983 39.3536 23.7787 40.4777 27.5498 40.5147C31.3209 40.5517 35.0227 39.5001 38.211 37.4858C41.3994 35.4716 43.939 32.5804 45.5252 29.1589C45.5859 29.0443 45.6331 28.923 45.687 28.8084H40.2407Z" fill="#E36C87"/>
<path d="M17.168 13.5142C18.3565 11.8081 19.9398 10.4145 21.783 9.45221C23.6262 8.48988 25.6746 7.98731 27.7539 7.98731C29.8332 7.98731 31.8817 8.48988 33.7249 9.45221C35.5681 10.4145 37.1513 11.8081 38.3399 13.5142H39.7419C38.4797 11.4667 36.7146 9.77623 34.6145 8.60371C32.5144 7.43119 30.1491 6.81564 27.7438 6.81564C25.3385 6.81564 22.9733 7.43119 20.8731 8.60371C18.773 9.77623 17.0079 11.4667 15.7458 13.5142H17.168Z" fill="#EE8CB0"/>
<path d="M37.922 28.8084C36.7144 30.3498 35.1721 31.5963 33.4116 32.4535C31.6511 33.3107 29.7187 33.7562 27.7607 33.7562C25.8026 33.7562 23.8702 33.3107 22.1097 32.4535C20.3493 31.5963 18.8069 30.3498 17.5994 28.8084H16.076C17.3696 30.7116 19.1091 32.2694 21.1428 33.3461C23.1765 34.4228 25.4427 34.9857 27.7438 34.9857C30.045 34.9857 32.3112 34.4228 34.3449 33.3461C36.3786 32.2694 38.118 30.7116 39.4116 28.8084H37.922Z" fill="#EE8CB0"/>
</svg>
