<svg xmlns="http://www.w3.org/2000/svg" width="32" height="32" viewBox="0 0 32 32" fill="none">
<path d="M20.144 9.6L16 13.744L11.856 9.6L9.6 11.856L13.744 16L9.6 20.144L11.856 22.4L16 18.256L20.144 22.4L22.4 20.144L18.256 16L22.4 11.856L20.144 9.6ZM16 0C7.152 0 0 7.152 0 16C0 24.848 7.152 32 16 32C24.848 32 32 24.848 32 16C32 7.152 24.848 0 16 0ZM16 28.8C8.944 28.8 3.2 23.056 3.2 16C3.2 8.944 8.944 3.2 16 3.2C23.056 3.2 28.8 8.944 28.8 16C28.8 23.056 23.056 28.8 16 28.8Z" fill="#D8D8D8"/>
</svg>