<svg xmlns="http://www.w3.org/2000/svg" width="22" height="26" viewBox="0 0 22 26" fill="none">
<path d="M10.9993 4.66663V0.666626L5.66602 5.99996L10.9993 11.3333V7.33329C15.4127 7.33329 18.9993 10.92 18.9993 15.3333C18.9993 19.2933 16.106 22.5733 12.3327 23.2133V25.9066C17.5993 25.2533 21.666 20.7733 21.666 15.3333C21.666 9.43996 16.8927 4.66663 10.9993 4.66663Z" fill="#3498DB"/>
<path d="M2.99967 15.3333C2.99967 13.1333 3.89301 11.1333 5.34634 9.67995L3.45301 7.78662C1.53301 9.71995 0.333008 12.3866 0.333008 15.3333C0.333008 20.7733 4.39967 25.2533 9.66634 25.9066V23.2133C5.89301 22.5733 2.99967 19.2933 2.99967 15.3333Z" fill="#3498DB"/>
</svg>