<svg width="40" height="40" viewBox="0 0 40 40" fill="none" xmlns="http://www.w3.org/2000/svg">
<circle opacity="0.7" cx="20" cy="20" r="20" fill="#B6C322"/>
<g clip-path="url(#clip0_10259_24593)">
<path d="M25 11H13C11.89 11 11 11.9 11 13V27C11 28.1 11.89 29 13 29H27C28.1 29 29 28.1 29 27V15L25 11ZM20 27C18.34 27 17 25.66 17 24C17 22.34 18.34 21 20 21C21.66 21 23 22.34 23 24C23 25.66 21.66 27 20 27ZM23 17H13V13H23V17Z" fill="white"/>
</g>
<defs>
<clipPath id="clip0_10259_24593">
<rect width="24" height="24" fill="white" transform="translate(8 8)"/>
</clipPath>
</defs>
</svg>
