<svg xmlns="http://www.w3.org/2000/svg" width="17" height="16" viewBox="0 0 17 16" fill="none">
<path fill-rule="evenodd" clip-rule="evenodd" d="M0.50025 16C0.37225 16 0.24425 15.951 0.14625 15.854C-0.04875 15.658 -0.04875 15.342 0.14625 15.146L6.14625 9.14601C6.34225 8.95101 6.65825 8.95101 6.85425 9.14601C7.04925 9.34201 7.04925 9.65801 6.85425 9.85401L0.85425 15.854C0.75625 15.951 0.62825 16 0.50025 16Z" fill="#707883"/>
<path fill-rule="evenodd" clip-rule="evenodd" d="M10.5026 1.00001C8.02162 1.00001 6.00262 3.01901 6.00262 5.50001C6.00262 7.98101 8.02162 10 10.5026 10C12.9836 10 15.0026 7.98101 15.0026 5.50001C15.0026 3.01901 12.9836 1.00001 10.5026 1.00001ZM10.5027 11C7.46969 11 5.00269 8.533 5.00269 5.5C5.00269 2.467 7.46969 0 10.5027 0C13.5357 0 16.0027 2.467 16.0027 5.5C16.0027 8.533 13.5357 11 10.5027 11Z" fill="#707883"/>
</svg>