<svg width="32" height="32" viewBox="0 0 32 32" fill="none" xmlns="http://www.w3.org/2000/svg">
<path fill-rule="evenodd" clip-rule="evenodd" d="M8.49634 24.0001C8.36834 24.0001 8.24034 23.9511 8.14234 23.8541C7.94734 23.6581 7.94734 23.3421 8.14234 23.1461L14.1423 17.1461C14.3383 16.9511 14.6543 16.9511 14.8503 17.1461C15.0453 17.3421 15.0453 17.6581 14.8503 17.8541L8.85034 23.8541C8.75234 23.9511 8.62434 24.0001 8.49634 24.0001Z" fill="#333842"/>
<path fill-rule="evenodd" clip-rule="evenodd" d="M18.5002 9.00005C16.0192 9.00005 14.0002 11.019 14.0002 13.5C14.0002 15.981 16.0192 18 18.5002 18C20.9812 18 23.0002 15.981 23.0002 13.5C23.0002 11.019 20.9812 9.00005 18.5002 9.00005ZM18.5 19C15.467 19 13 16.533 13 13.5C13 10.467 15.467 8 18.5 8C21.533 8 24 10.467 24 13.5C24 16.533 21.533 19 18.5 19Z" fill="#333842"/>
<rect x="0.496094" y="0.5" width="31.0035" height="31" rx="3.5" stroke="#979797"/>
</svg>
