<svg width="56" height="56" viewBox="0 0 56 56"  xmlns="http://www.w3.org/2000/svg">
<path d="M44.66 30.1933C44.7533 29.4933 44.8 28.77 44.8 28C44.8 27.2533 44.7533 26.5067 44.6366 25.8067L49.3733 22.12C49.7933 21.7933 49.91 21.1633 49.6533 20.6967L45.1733 12.95C44.8933 12.4367 44.31 12.2733 43.7966 12.4367L38.22 14.6767C37.0533 13.79 35.8166 13.0433 34.44 12.4833L33.6 6.55666C33.5066 5.99666 33.04 5.6 32.48 5.6H23.52C22.96 5.6 22.5166 5.99666 22.4233 6.55666L21.5833 12.4833C20.2066 13.0433 18.9466 13.8133 17.8033 14.6767L12.2266 12.4367C11.7133 12.25 11.13 12.4367 10.85 12.95L6.3933 20.6967C6.1133 21.1867 6.20664 21.7933 6.6733 22.12L11.41 25.8067C11.2933 26.5067 11.2 27.2767 11.2 28C11.2 28.7233 11.2466 29.4933 11.3633 30.1933L6.62664 33.88C6.20664 34.2067 6.08997 34.8367 6.34664 35.3033L10.8266 43.05C11.1066 43.5633 11.69 43.7267 12.2033 43.5633L17.78 41.3233C18.9466 42.21 20.1833 42.9567 21.56 43.5167L22.4 49.4433C22.5166 50.0033 22.96 50.4 23.52 50.4H32.48C33.04 50.4 33.5066 50.0033 33.5766 49.4433L34.4166 43.5167C35.7933 42.9567 37.0533 42.21 38.1966 41.3233L43.7733 43.5633C44.2866 43.75 44.87 43.5633 45.15 43.05L49.63 35.3033C49.91 34.79 49.7933 34.2067 49.35 33.88L44.66 30.1933ZM28 36.4C23.38 36.4 19.6 32.62 19.6 28C19.6 23.38 23.38 19.6 28 19.6C32.62 19.6 36.4 23.38 36.4 28C36.4 32.62 32.62 36.4 28 36.4Z" fill="black"/>
</svg>
