<svg xmlns="http://www.w3.org/2000/svg" width="28" height="28" viewBox="0 0 28 28" fill="none">
<path d="M21.7778 0H3.11111C1.38444 0 0 1.4 0 3.11111V24.8889C0 26.6 1.38444 28 3.11111 28H24.8889C26.6 28 28 26.6 28 24.8889V6.22222L21.7778 0ZM14 24.8889C11.4178 24.8889 9.33333 22.8044 9.33333 20.2222C9.33333 17.64 11.4178 15.5556 14 15.5556C16.5822 15.5556 18.6667 17.64 18.6667 20.2222C18.6667 22.8044 16.5822 24.8889 14 24.8889ZM18.6667 9.33333H3.11111V3.11111H18.6667V9.33333Z" fill="#3498DB"/>
</svg>